<?xml version="1.0" encoding="utf-8"?>
<!-- Generator: Adobe Illustrator 26.0.3, SVG Export Plug-In . SVG Version: 6.00 Build 0)  -->
<svg version="1.1" id="Camada_1" xmlns="http://www.w3.org/2000/svg" xmlns:xlink="http://www.w3.org/1999/xlink" x="0px" y="0px"
	 viewBox="0 0 595.28 841.89" style="enable-background:new 0 0 595.28 841.89;" xml:space="preserve">
<style type="text/css">
	.st0{fill:#0053A4;}
	.st1{fill:#FDF100;}
	.st2{fill:#F7EF5E;}
	.st3{fill:#F0EA66;}
	.st4{fill:#FEFEFE;}
</style>
<g>
	<g>
		<path class="st0" d="M205.6,355.3c2.3-2.42,4.49-4.79,6.74-7.1c11.15-11.5,23.39-21.65,37.43-29.45
			c13.44-7.47,27.73-12.73,42.83-15.7c7.84-1.54,15.72-2.76,23.72-3.08c1.4-0.06,2.8-0.06,4.19,0.02c1.96,0.12,2.26,0.49,2.26,2.42
			c0,1.76,0,3.52,0,5.28c0,7.51,0,15.02,0,22.54c0,0.24,0.01,0.48,0,0.72c-0.04,1.51-0.48,1.87-1.83,1.26
			c-3.74-1.69-7.67-2.12-11.7-1.84c-3.04,0.21-5.99,0.9-8.93,1.69c-0.68,0.18-1.26,0.59-1.63,1.17c-1.79,2.79-3.63,5.55-4.26,8.9
			c-0.16,0.87-0.2,1.75-0.19,2.62c0.17,18.71,0.04,37.41,0,56.12c0,0.44,0,0.88,0.03,1.32c0.07,0.91,0.56,1.44,1.46,1.64
			c0.88,0.2,1.75,0.04,2.63,0.04c7.4,0,14.79,0,22.19,0c1.95,0,2.31,0.37,2.31,2.3c0,2.32-0.03,4.63,0.01,6.95
			c0.04,2.07-0.39,2.58-2.44,2.59c-7.75,0-15.51,0-23.26,0c-0.48,0-0.96,0-1.44,0.05c-0.87,0.1-1.39,0.62-1.46,1.48
			c-0.07,0.71-0.03,1.43-0.03,2.15c-0.01,10.83-0.02,21.67-0.02,32.5c0,1.91,0.41,2.34,2.31,2.34c7.83-0.02,15.67-0.05,23.5-0.07
			c2.54-0.01,3.05,0.6,2.87,3.17c-0.13,1.95-0.15,3.91,0.07,5.87c0.23,2.04-0.55,2.91-2.62,2.91c-7.47-0.02-14.95-0.07-22.42-0.11
			c-0.24,0-0.48,0-0.72,0c-2.29,0.03-2.92,0.65-2.93,2.93c-0.02,6.71-0.01,13.43-0.05,20.14c-0.03,6.47-0.19,12.95-0.14,19.42
			c0.11,12.82,0.63,25.63,1.94,38.39c0.59,5.72,0.95,11.46,1.82,17.15c0.56,3.63,2.7,6.32,5.5,8.55c0.54,0.43,0.71,0.23,0.85-0.33
			c0.18-0.7,0.24-1.41,0.25-2.13c0.06-8.75,0.09-17.5,0.18-26.25c0.04-4.31,0.18-8.64,1.66-12.76c1.52-4.23,3.77-7.85,8.3-9.46
			c1.8-0.64,3.64-0.93,5.52-0.4c1.89,0.53,2.62,1.53,2.66,3.48c0.01,0.44,0,0.88,0,1.32c0,25.74,0,51.49,0,77.23
			c0,2.37-0.33,2.72-2.69,2.67c-4.87-0.09-9.75,0.14-14.6-0.47c-1.31-0.16-2.6-0.38-3.9-0.62c-1.48-0.26-1.86,0.08-1.81,1.62
			c0.04,1.44,0.05,2.88,0,4.31c-0.05,1.53-0.46,1.94-1.99,2.16c-0.71,0.1-1.43,0.16-2.14,0.2c-0.66,0.04-1.2,0.17-1.18,1
			c0.02,0.79,0.06,1.54,1.1,1.68c0.89,0.12,1.76,0,2.63-0.07c0.96-0.08,1.52,0.32,1.69,1.27c0.3,1.71,0.14,3.42,0,5.13
			c-0.05,0.6-0.54,0.77-1.05,0.77c-4.64,0.01-9.27,0.01-13.91-0.02c-0.9,0-1.38-0.48-1.34-1.45c0.05-1.24,0.04-2.48,0.05-3.71
			c0-1.16,0.57-1.77,1.74-1.83c0.92-0.04,1.83-0.14,2.75-0.13c0.96,0.01,1.24-0.49,1.24-1.35c0.01-0.87-0.27-1.38-1.23-1.34
			c-0.88,0.03-1.76,0-2.64,0.01c-1.58,0.03-2.03-0.35-1.95-1.95c0.12-2.48-0.02-4.95-0.02-7.43c0-2.01-0.56-2.76-2.54-3.35
			c-3.13-0.93-6.25-1.9-9.32-3.03c-1.74-0.64-2.28-0.26-2.29,1.59c-0.02,3.84-0.03,7.67-0.04,11.51c-0.01,2.13-0.49,2.63-2.59,2.68
			c-1.04,0.03-2.08,0.01-3.12,0.01c-0.66,0-1.24,0.15-1.23,0.96c0.02,0.79,0.14,1.57,1.14,1.68c1.11,0.12,2.21,0.2,3.34,0.04
			c1.9-0.26,2.45,0.29,2.45,2.22c0,1.16,0,2.32,0,3.48c0,0.91-0.37,1.42-1.36,1.41c-4-0.03-7.99-0.05-11.99-0.06
			c-1.04,0-2.08,0.08-3.11,0.05c-1.38-0.04-1.74-0.42-1.6-1.76c0.11-0.97-0.15-1.91-0.16-2.86c-0.01-1.94,0.9-2.78,2.84-2.63
			c0.48,0.04,0.95,0.13,1.43,0.13c0.97,0,1.55-0.66,1.47-1.62c-0.08-1.01-0.71-1.25-1.59-1.13c-0.12,0.02-0.24,0.05-0.35,0.06
			c-2.4,0.25-3.13-0.41-3.07-2.85c0.14-6.19-0.11-12.38,0.16-18.58c0.1-2.22-1.02-3.86-2.98-4.95c-4.57-2.54-9.01-5.29-13.33-8.26
			c-8.7-5.99-16.38-13.12-23.54-20.86c-8.01-8.65-15.59-17.65-22.58-27.16c-9.68-13.17-16.68-27.52-20.81-43.4
			c-2.98-11.45-5.3-22.98-6.97-34.69c-1.39-9.74-2-19.53-2.57-29.34c-0.3-5.19-0.99-10.33-1.5-15.5c-0.45-4.57-0.57-9.16-0.85-13.74
			c-0.4-6.42-1.04-12.81-1.58-19.22c-0.7-8.27-1.35-16.55-2.06-24.83c-0.29-3.46-0.25-6.96-0.98-10.36
			c-0.65-3.05-2.22-5.8-3.23-8.74c-0.56-1.62-1.18-3.22-1.77-4.83c-0.32-0.87-0.61-1.79-1.37-2.35c-2.84-2.06-3.47-4.98-3.12-8.19
			c0.62-5.69-0.15-11.15-2.55-16.35c-0.9-1.95-2.25-3.66-3.14-5.64c-2.15-4.75-4.07-9.64-6.94-14.03c-4.02-6.15-8.48-12-13.04-17.76
			c-8.8-11.1-19.1-20.59-30.81-28.57c-2.17-1.48-4.2-3.19-6.29-4.79c-1.6-1.22-3.39-2.04-5.22-2.87c-8.17-3.69-16.45-7.14-24.5-11.1
			c-1.4-0.69-2.6-1.65-2.55-3.45c0.05-1.91,1.09-3.23,2.69-4.1c1.84-0.99,3.89-1.41,5.86-2.04c6.7-2.12,13.46-4.06,20.46-4.83
			c7.18-0.79,14.35-1.74,21.5-2.78c10.97-1.58,22.05-1.66,33.06-2.67c8.44-0.78,16.9-1.06,25.37-1.04
			c9.91,0.02,19.8-0.58,29.69-0.99c7.7-0.32,15.42-0.12,23.12,0.3c5.78,0.31,11.57,0.45,17.35,0.7c9.14,0.39,18.21,1.63,27.31,2.47
			c7.32,0.67,14.62,1.5,21.93,2.18c8.73,0.81,16.9,3.18,24.41,7.75c3.34,2.03,3.53,3.75,0.55,6.33c-1.41,1.22-3.1,1.95-4.85,2.54
			c-11.47,3.93-21.93,9.69-31.42,17.24c-8.4,6.69-15.61,14.51-22.07,23.05c-2.7,3.57-5.52,7.05-8.14,10.67
			c-1.73,2.38-3.04,5.04-4.36,7.68c-1.18,2.35-2.5,4.63-3.79,6.92c-2.99,5.31-5.98,10.64-8.71,16.09
			c-2.87,5.74-2.79,11.78-1.01,17.85c0.19,0.65,0.4,1.3,0.53,1.96c0.37,1.9-0.12,3.51-1.79,4.59c-2.15,1.4-3.46,3.41-4.14,5.82
			c-1.86,6.52-4.05,12.94-5.15,19.66c-0.41,2.53-0.67,5.06-0.83,7.62C205.27,354.19,205.33,354.7,205.6,355.3z"/>
		<path class="st1" d="M458.57,397.27c-7.2-2.59-14.68-2.83-22.21-2.66c-8.81,0.2-16.11,3.83-22.29,9.91
			c-2.68,2.63-5.24,5.38-7.86,8.07c-0.31,0.31-0.62,0.62-0.97,0.89c-1.15,0.91-1.89,0.85-2.91-0.22c-0.27-0.29-0.53-0.6-0.76-0.92
			c-6.36-8.49-14.97-13.36-25.22-15.52c-6.14-1.29-12.34-1.65-18.57-0.8c-4.87,0.67-9.23,2.74-13.44,5.13
			c-5.17,2.93-10.29,5.96-15.43,8.95c-0.35,0.2-0.69,0.4-1.04,0.59c-0.39,0.2-0.79,0.49-1.23,0.26c-0.5-0.26-0.29-0.77-0.29-1.19
			c0.06-9.19,0.07-18.38-0.02-27.57c-0.08-7.43,0.07-14.86,0.09-22.29c0.02-10.19,0.13-20.38-0.05-30.57
			c-0.17-10.18-0.77-20.34-0.94-30.52c-0.37-21.34-0.03-42.68-0.15-64.02c-0.03-5.43-0.13-10.87-0.17-16.3
			c-0.02-2.86,0.69-3.54,3.51-3.56c8.67-0.07,17.35-0.6,26-0.13c17.61,0.96,34.89,3.68,51.45,10.13c8.4,3.27,16.87,6.34,24.95,10.37
			c13.95,6.96,27.04,15.25,39.03,25.25c6.66,5.56,13.07,11.38,19.04,17.69c1.1,1.16,2.08,2.42,3.12,3.63
			c0.55,1.38,1.72,2.27,2.67,3.34c6.42,6.92,11.48,14.81,16.49,22.76c5.97,9.47,10.09,19.81,14.4,30.07
			c5.71,13.61,9.74,27.75,13.67,41.94c2.91,10.49,5.8,20.99,7.75,31.72c0.09,0.51,0.24,1.01,0.43,1.49c0.19,0.48,0.31,0.93-0.16,1.3
			c-0.5,0.39-0.99,0.21-1.42-0.13c-1.1-0.87-2.17-1.77-3.27-2.63c-3.66-2.85-7.02-6.06-10.87-8.66c-6.16-4.16-13-6.37-20.4-6.85
			c-8.07-0.52-15.45,1.81-22.48,5.53c-4.45,2.36-8.64,5.15-12.84,7.92c-2.32,1.53-3.15,1.33-4.52-1.12
			c-0.41-0.73-0.9-1.41-1.35-2.12C467.8,401.56,463.78,398.65,458.57,397.27z"/>
		<path class="st1" d="M361.18,609.68c-0.01,2.55,0.2,5.11-0.46,7.63c-0.56,2.16-1.64,4-3.44,5.33c-11.34,8.33-24.74,2.92-29.32-5.9
			c-1.78-3.43-2.52-7.13-2.94-10.91c-0.8-7.15-1.01-14.34-0.95-21.53c0.05-6.27,0.25-12.54,0.15-18.82c-0.01-0.8-0.03-1.6-0.06-2.4
			c-0.05-1.37,0.04-2.57,1.58-3.27c1.25-0.57,1.47-1.9,1.59-3.17c0.04-0.4,0.01-0.8,0.01-1.2c0-40.89,0-81.79,0-122.68
			c0-4.16-0.08-8.31-0.09-12.47c-0.01-1.16,0.05-2.32,0.37-3.44c0.39-1.38,1.2-2.45,2.52-3.02c1.08-0.47,2.04-1.07,2.96-1.79
			c0.62-0.49,1.31-0.79,2.1-0.37c0.8,0.42,0.93,1.16,0.9,1.94c-0.41,11.59,0.08,23.18-0.25,34.77c-0.12,4.44-0.33,8.88-0.26,13.33
			c0.09,5.55,0.27,11.11,0.08,16.66c-0.56,16.65-0.83,33.31-0.72,49.98c0.05,7.43,0.02,14.87,0,22.3c-0.01,2.28-0.07,4.55-0.15,6.83
			c-0.04,0.99,0.24,1.72,1.24,2.05c0.77,0.25,0.98,0.84,0.97,1.59c-0.13,8.83-0.31,17.66-0.35,26.48
			c-0.02,5.15-0.35,10.31,0.3,15.45c0.42,3.28,1.52,6.28,3.87,8.7c2.59,2.66,6.25,2.46,8.51-0.5c1.98-2.6,2.7-5.65,2.97-8.84
			c0.04-0.52,0.14-1.03,0.2-1.54c0.14-1.05,0.84-1.53,1.81-1.58c1.11-0.05,2.24-0.04,3.35,0.03c1.58,0.1,2.56,1.02,2.99,2.52
			c0.45,1.59,0.58,3.21,0.51,4.86C361.15,607.68,361.18,608.68,361.18,609.68z"/>
		<path class="st2" d="M458.57,397.27c1.37-0.21,2.63,0.16,3.75,0.91c2.24,1.51,4.56,2.93,6.39,4.97c0.85,0.94,1.43,2,1.58,3.26
			c-2.16-1.94-4.19-4.04-6.48-5.84C462.18,399.29,460.38,398.28,458.57,397.27z"/>
		<path class="st3" d="M494.86,285.21c-1.32-0.77-2.48-1.66-2.67-3.34C493.27,282.83,494.79,283.44,494.86,285.21z"/>
		<path class="st4" d="M289.93,580.28c-2.88-0.01-5.34-0.99-7.79-1.9c-10.1-3.74-19.85-8.21-29.01-13.9
			c-6.59-4.09-12.8-8.67-18.76-13.64c-7.33-6.12-12.96-13.63-18.04-21.59c-2.93-4.6-6.02-9.12-8.51-13.99
			c-1.5-2.94-3.06-5.85-3.89-9.09c-0.55-2.15-0.7-4.36-0.73-6.51c-0.08-4.6-0.65-9.15-0.78-13.74c-0.14-4.89,0.52-9.71,0.98-14.55
			c0.52-5.47,1.12-10.93,2.59-16.25c1.54-5.58,3.53-10.94,8.25-14.77c3.2-2.6,6.9-3.88,10.95-4.25c3.69-0.34,7.38-0.69,11.08-0.9
			c3.11-0.18,6.23-0.23,9.34-0.22c1.62,0.01,2.16,0.74,2.16,2.51c0,7.87-0.01,15.75-0.02,23.62c0,4.4,0.01,8.79,0.01,13.19
			c0,2.17-0.89,3.06-3.04,3.07c-1.28,0.01-2.56-0.01-3.84,0.01c-1.86,0.02-2.77,0.84-2.97,2.72c-0.08,0.75-0.08,1.52-0.08,2.27
			c-0.01,6.51,0,13.03,0,19.54c0,0.8-0.09,1.6-0.01,2.39c0.14,1.25,0.83,1.83,2.09,1.81c1.44-0.02,2.87-0.18,4.31-0.17
			c2.39,0.01,3.03,0.73,3.06,3.09c0.05,4.18,0.36,8.36,0.62,12.52c0.25,4.09,2.61,7.43,6.08,9.72c6.17,4.07,12.93,6.09,20.37,5.53
			c1.86-0.14,3.53-0.94,5.16-1.79c1.69-0.87,2.21-0.7,2.54,1.17c0.36,2.04,0.71,4.12,0.66,6.17c-0.12,6.02,0.54,11.95,1.53,17.86
			c0.99,5.93,2.23,11.81,4.6,17.38C289.21,578.43,289.53,579.28,289.93,580.28z"/>
		<path class="st4" d="M288.03,326.6c-2.42,2.43-3.41,5.41-4.27,8.6c-1.3,4.78-0.48,9.6-0.91,14.38c-0.35,3.88-0.31,7.78-0.75,11.66
			c-0.32,2.84-0.13,5.75-0.15,8.62c-0.01,1.68,0.01,3.36-0.01,5.04c-0.02,1.87-0.88,2.33-2.61,1.48c-1.41-0.7-2.8-1.41-4.39-1.75
			c-1.32-0.28-2.62-0.17-3.92-0.26c-3.51-0.24-6.84,0.45-10.12,1.71c-3.53,1.35-6.19,3.8-8.35,6.68c-1.66,2.22-2.92,4.8-2.76,7.8
			c0.1,1.86-0.78,3.55-1.16,5.33c-0.44,2.08-0.8,4.12-0.76,6.25c0.03,1.9-0.22,2.12-2.15,2.12c-14.27-0.01-28.54-0.02-42.81-0.04
			c-1.06,0-1.19-0.29-0.63-1.51c1.07-2.32,2.13-4.65,3.26-6.95c1.55-3.14,3.13-6.28,4.78-9.37c2.48-4.64,5.34-9.06,8.36-13.35
			c1.66-2.35,3.45-4.63,5.27-6.88c3.66-4.51,7.87-8.49,12.1-12.42c3.17-2.95,6.68-5.56,10.39-7.85c2.53-1.56,4.9-3.35,7.43-4.92
			c5.62-3.49,11.54-6.45,17.53-9.25c3.59-1.68,7.48-2.73,11.22-4.08C284.33,327.02,286.03,326.38,288.03,326.6z"/>
		<path class="st4" d="M281.57,438.05c0,12.51-0.26,25.02,0.09,37.52c0.26,9.22,0.05,18.44,0.26,27.66c0.08,3.4-0.8,6.6-1.8,9.81
			c-0.81,2.6-1.94,4.92-4.08,6.7c-2.03,1.68-5.86,2.35-8.41,1.38c-4.7-1.78-7.02-5.38-8.4-9.92c-0.43-1.41-0.53-2.79-0.53-4.23
			c0-16.3,0-32.61,0-48.91c0-0.9-0.1-1.81,0.63-2.58c0.36-0.38,0.18-1,0.18-1.51c0.01-16.66,0.03-33.33,0.01-49.99
			c-0.01-4.16,0.56-8.18,2.68-11.81c1.35-2.31,3.35-3.96,6.15-4.16c2.73-0.19,5.42-0.33,8.05,0.99c2.36,1.19,3.36,3.17,4.02,5.43
			c1.35,4.58,1.11,9.32,1.13,14.01c0.04,9.87,0.01,19.74,0.01,29.61C281.56,438.05,281.56,438.05,281.57,438.05z"/>
		<path class="st4" d="M193.54,472.95c-1.3-2.8-1.73-5.76-2.12-8.8c-0.64-4.91-0.31-9.81-0.34-14.7c-0.02-3.42,0.6-6.81,0.85-10.22
			c0.26-3.59,1.13-7.04,1.86-10.53c0.68-3.26,1.6-6.44,2.61-9.61c0.63-1.98,1.52-2.75,3.59-2.75c13.67,0,27.34,0,41.01,0
			c1.52,0,3.04-0.07,4.55-0.05c1.79,0.02,2.28,0.52,2.31,2.29c0.03,1.44,0.09,2.88,0.04,4.31c-0.06,1.88-0.84,2.65-2.72,2.81
			c-0.4,0.03-0.8,0.07-1.2,0.07c-4.51-0.08-9,0.35-13.5,0.53c-4.12,0.17-8.19,1-12.2,2.04c-2.38,0.62-4.73,1.26-6.89,2.48
			c-0.17,0.1-0.39,0.13-0.53,0.26c-2.72,2.58-5.51,5.08-7.84,8.04c-1.39,1.76-2.57,3.61-3.44,5.67c-1.26,3.01-1.99,6.17-2.6,9.36
			c-0.5,2.61-1.33,5.14-1.66,7.79c-0.32,2.59-1.32,5.08-1.24,7.74C194.13,470.78,193.59,471.8,193.54,472.95z"/>
	</g>
</g>
</svg>
