<?xml version="1.0" encoding="utf-8"?>
<!-- Generator: Adobe Illustrator 26.0.3, SVG Export Plug-In . SVG Version: 6.00 Build 0)  -->
<svg version="1.1" id="Camada_1" xmlns="http://www.w3.org/2000/svg" xmlns:xlink="http://www.w3.org/1999/xlink" x="0px" y="0px"
	 viewBox="0 0 560 288" style="enable-background:new 0 0 560 288;" xml:space="preserve">
<style type="text/css">
	.st0{fill:#F1291B;}
	.st1{fill:#241011;}
</style>
<g>
	<g>
		<path class="st0" d="M155.9,100.52c-0.97-10.22,0.26-20.43,0.11-30.65c-0.03-2.27,0.59-4.64-0.73-6.78
			c0.57-7.15-1.54-9.67-8.56-10.13c-2.66-0.17-5.27,0.17-7.86,0.87c-3.12,0.85-4.62,2.49-4.53,5.99
			c0.28,10.43,0.24,20.87,0.34,31.31c0.09,8.78,0.09,8.78-8.48,8.65c0.04-10.75-0.03-21.5,0.13-32.25
			c0.2-13.54,0.58-27.08,0.89-40.62c2.67,0,5.33,0,8,0c0,8.16,0,16.32,0,24.95c1.6-0.75,3.31-1.55,5.02-2.36
			c3.57-0.43,7.12-0.92,10.75-0.67c5.7,0.4,9.66,3.32,12.44,8.12c0.06,0.74-0.52,1.79,0.9,1.9c0,0-0.04-0.04-0.04-0.04
			c-0.14,11.12-0.41,22.25,0.78,33.34c0.8,7.41,0.79,7.39-6.33,7.69C157.78,99.89,156.84,100.29,155.9,100.52z"/>
		<path class="st1" d="M140.23,49.51c-1.71,0.8-3.43,1.61-5.02,2.36c0-8.63,0-16.79,0-24.95c0.67,0,1.33,0,2,0
			C141.62,34,139.96,41.88,140.23,49.51z"/>
		<path class="st0" d="M113.45,247.13c-0.39-21.1,0.55-42.17,0.84-63.26c0.06-4.03,3.52-3.84,5.61-4.41
			c9.08-2.47,18.29-4.3,27.81-2.61c4.51,0.8,8.74,2.23,11.89,5.65c1.84,1.99,2.96,1.39,4.8,0.04c10.06-7.34,24.37-8.46,33.31-2.93
			c3.56,2.2,6.1,4.99,6.63,9.29c1.18,5.37,0.83,10.83,0.84,16.26c0.02,10.48-0.13,20.96,0.06,31.44
			c0.21,11.49,0.34,11.49-11.1,11.11c-1.04-9.73,0.18-19.47-0.15-29.2c-0.31-9.22,1.32-18.5-0.84-27.66c0.53-3.18-1.38-4.98-3.8-6.3
			c-5.14-2.8-10.59-2.5-15.91-0.82c-6.68,2.1-8.2,4.46-8.31,11.42c-0.2,13.43-0.39,26.87-0.62,40.3c-0.06,3.47,0.91,7.66-0.68,10.24
			c-1.99,3.24-6.84,0.21-10.2,1.71c0.12-15.13,0.26-30.25,0.36-45.38c0.03-3.96,0.63-8.02-1.57-11.69c1.71-2.28-0.27-3.27-1.63-4.3
			c-6.62-5.03-14-3.84-21.44-2.63c-3.52,0.57-4.35,2.29-4.36,5.73c-0.03,15.59-0.24,31.19-0.68,46.77
			C124.02,246.56,123.81,246.55,113.45,247.13z"/>
		<path class="st0" d="M341.57,176.23c2.41,0.45,4.79,1.11,7.22,1.31c9.07,0.75,15.3,9.6,16.25,18.97
			c-1.87,1.33-1.21,3.32-1.21,5.05c0.04,13.44-0.03,26.88,0.35,40.31c0.13,4.58-1.15,6.46-5.82,6.01c-2.17-0.21-4.69-0.76-6.23,1.71
			c-1.18-1.18-1.06-2.69-1.06-4.18c0.01-15.45,0.01-30.9,0.01-46.35c0.12-1.97,0.4-3.95,0.35-5.92c-0.17-5.97-2.54-8.85-8.5-9.95
			c-5.14-0.94-10.24-0.42-15.2,1.3c-3.13,1.09-4.68,2.83-4.62,6.55c0.26,15.43,0.18,30.86,0.17,46.29c0,2.96,0.74,6.52-0.62,8.71
			c-1.4,2.25-5.25,0.38-7.96,1.07c-0.8,0.2-1.63,0.26-2.45,0.38c-0.17-15.11-0.37-30.22-0.49-45.33
			c-0.12-14.79-0.17-29.58-0.22-44.37c-0.03-9.19,0.01-9.2,9.19-8.84c0.83,0.03,1.65,0.15,2.48,0.23
			c-0.02,9.49-0.07,18.98-0.03,28.47c0.01,1.35-0.95,3.56,1.97,3.28c0.83-0.2,1.67-0.4,2.5-0.59c0,0-0.09,0.13-0.09,0.13
			c2.03-1.14,4.06-2.27,6.08-3.41C336.3,176.8,338.93,176.51,341.57,176.23z"/>
		<path class="st0" d="M224.25,243.83c-12.23-13.59-12.22-29.7-8.42-45.98c3.76-16.06,17.77-24.05,33.98-20.67
			c8.97,1.87,14.56,7.36,17.16,16.03c1.21,10.95,3.22,21.69,0.68,32.96c-4.22,18.71-21.39,27.57-38.72,18.93
			C227.42,244.35,225.98,243.64,224.25,243.83z M228.03,229.98c0.41,0.51,0.96,0.97,1.2,1.55c2.88,7.14,7.42,10.15,15.25,10.05
			c5.65-0.07,8.56-2.58,11.02-10.15c3.53-10.84,2.9-21.92,1.41-33c-1.28-6.12-2.18-12.6-9.07-15.22c-7.76-2.95-15.4-0.32-18.74,7.3
			C223.45,203.37,222.47,216.67,228.03,229.98z"/>
		<path class="st0" d="M372.01,228.28c-4.03-17.29-1.65-32.96,12.1-45.44c10.5-9.53,29.77-8.23,38.26,2.12
			c2.85,3.48,3.3,7.73,4.79,11.65c0.08,3.14-0.02,6.3,0.29,9.41c0.28,2.77-0.69,3.68-3.44,4.05c-12.6,1.71-25.16,3.75-37.76,5.49
			c-3.74,0.52-4.26,1.86-1.99,4.67c1.32,9.29,5.35,16.5,14.6,19.44c7.33,2.34,14.95,1.82,22.01-0.84c3.59-1.35,4.34-0.32,5.12,2.48
			c0.22,0.79,0.56,1.55,0.84,2.33c-5.16,2.28-10.58,3.49-16.13,4.53c-9.78,1.83-18.14-0.86-25.96-6.49
			c-4.23-3.04-7.63-6.63-9.56-11.57C374.73,228.95,374.45,226.48,372.01,228.28z M386.13,194.01c-2.83,4.05-2.32,8.84-2.94,13.37
			c-0.42,3.03,1.2,3.62,3.92,3.11c4.38-0.83,8.85-1.21,13.22-2.11c4.31-0.89,8.95-0.33,12.9-2.83c1.55,0.11,2.37-0.47,2.67-2.14
			c1.24-6.8-1.58-16.49-5.65-18.97c-7.48-4.56-18.42-2.02-23.05,5.57C386.57,191.04,383.98,192.07,386.13,194.01z"/>
		<path class="st0" d="M226.97,100.06c-3.22-7.64-5.1-15.71-6.98-23.73c-0.75-3.2-2.04-6.15-2.98-9.23
			c-1.74-5.73-2.9-11.58-4.12-17.6c1.63-1.02,3.66-0.31,5.57-0.43c2.52-0.16,4.23,0.6,3.87,3.69c-0.34,2.88,1.99,5.08,2.26,7.83
			c-0.52,4.89,0.05,9.51,3.38,13.43c0.08,5.44,2.03,10.51,3.16,15.88c2.72-6.86,4.77-13.85,6.99-20.8c1.8-5.65,2.9-11.48,4.97-17.04
			c0.96-2.57,3.05-2.04,4.99-2.11c3.14-0.12,3.85,2.63,4.4,4.54c3.36,11.78,6.39,23.65,9.55,35.49c0.02,0.09,0.27,0.12,0.63,0.27
			c2.77-11.15,5.58-22.26,8.27-33.4c1.98-8.18,1.91-8.2,10.26-7.56c-0.28,0.77-0.61,1.53-0.85,2.32c-4.4,14.53-7.57,29.4-12.14,43.9
			c-1.32,4.2-3.32,4.3-6.65,4.38c-3.84,0.1-3.53-2.85-4.22-5c-0.96-2.97-1.65-6.02-2.45-9.04c-0.22,0.12-0.47,0.21-0.65,0.37
			c-0.11,0.09-0.13,0.3-0.19,0.45c-2.45-5.78-3.47-11.94-4.8-18.02c0.07-3.27-0.18-6.47-2.35-10.1
			c-4.18,10.15-7.03,19.96-9.41,29.86C234.96,98.78,234.42,99.82,226.97,100.06z"/>
		<path class="st0" d="M292.37,236.18c2.42,3.99,6.17,5.06,10.54,4.79c-0.02,6.08-1.25,7.34-7.18,6.67
			c-2.28-0.26-4.57-0.95-6.69-1.84c-2.73-1.15-4.85-3.54-7.91-4.1c0,0,0.03-0.26,0.03-0.26c-0.57-0.95,0.38-2.39-1-3.08
			c-1.37-2.11-0.95-4.51-0.96-6.79c-0.08-14.13-0.1-28.26-0.14-42.39c0.28-6.23,0.28-6.24-6.01-5.96c-0.49,0.02-0.97,0.17-1.45,0.26
			c-0.68-3.98-0.11-6.85,5.04-5.98c2.12,0.36,2.95-0.75,2.75-2.86c-0.14-1.47-0.06-2.96-0.05-4.44c0.06-9.83,0.43-10.22,10.57-11.18
			c0.08,5.21,0.11,10.43,0.27,15.64c0.03,0.84-0.99,2.54,1.23,2.36c3.88,0.2,7.75,0.4,11.63,0.6c0.63,4.99-1.91,6.34-6.35,5.59
			c-0.64-0.11-1.33,0.05-1.98-0.02c-3.39-0.38-4.62,0.91-4.57,4.48c0.16,14.07-0.02,28.15,0.03,42.23
			C290.16,232.14,289.67,234.77,292.37,236.18z"/>
		<path class="st0" d="M433.63,250.75c-1.16-10.73-0.33-21.49-0.69-32.24c-0.32-9.62-0.32-19.24-0.71-28.85
			c-0.2-4.86,1.86-7,6.33-9.08c7.53-3.49,15.28-3.97,23.21-4.37c2.63-0.13,4.8,0.13,4.17,3.65c-1.01,0.45-1.07,1.21-0.72,2.12
			c0,0,0.03-0.1,0.03-0.1c-3.24,2.12-6.83,0.62-10.24,0.96c-6.96,0.7-7.97,1.58-7.85,8.56c0.29,16.97,0.61,33.94,1.07,50.91
			c0.09,3.29-0.58,5.28-4.3,4.57C439.68,246.08,436.69,248.48,433.63,250.75z"/>
		<path class="st0" d="M176.23,96.99c-6.58-11.2-7.81-22.99-3.41-35.17c3.91-10.81,11.97-14.88,23.33-12.28
			c10.3,2.36,13.57,6.14,14.82,17.11c-0.04,4.54,0.05,9.09-0.14,13.62c-0.38,9.08-5.09,18.65-16.18,20.21
			C187.94,101.43,182.19,99.04,176.23,96.99z M183.11,91.01c4.76,6.48,13.03,6.73,16.65-0.18c4.09-7.79,4.72-16.36,2.04-24.95
			c0.23-1.15,0.03-2.23-0.21-3.39c-0.98-4.73-2.04-9.19-8.11-9.71c-6.64-0.57-10.48,1.68-12.97,8.15
			c-2.73,7.09-2.41,14.56-1.71,21.85C179.08,85.61,179.74,89.3,183.11,91.01z"/>
		<path class="st0" d="M236.22,133.04c1.48-3.06,0.6-6.04-0.3-9.03c-0.18-5.63-3.24-8.41-8.97-8.13c-4.32,0.21-7.7,3.71-7.71,8.05
			c-0.02,7.99-0.4,16,0.12,23.95c0.34,5.2-1.38,6.92-6.25,6.11c-0.06-9.6-0.12-19.21-0.17-28.81c-0.31-8.27-3.65-9.84-13.27-9
			c-2.99,0.26-4.28,1.64-4.29,5.14c-0.02,9.26-0.33,18.55-0.48,27.81c-0.09,5.44-2.69,4.52-5.67,4.76
			c0.06-12.36-1.14-24.75,0.8-37.08c0.11-0.72-1.25-1.62,0.62-2.04c5.57-1.25,11.07-2.93,16.9-2.02c0.66,0.1,1.55-0.08,1.94,0.28
			c5.07,4.75,9.89,2.4,15.39,0.41c8.54-3.1,14.23-0.36,18.45,7.34c-0.02,9.96-0.1,19.92,0,29.88c0.03,2.55-0.69,3.59-3.37,3.47
			c-2.26-0.11-3.89-0.32-3.84-3.17C236.23,144.98,236.2,139.01,236.22,133.04z"/>
		<path class="st0" d="M408.07,143.89c2.67,6.79,5.17,8.32,12.43,7.63c1.02-11.33,0.72-22.69,0.61-34.05
			c1.28-5.31,4.91-4.82,8.84-3.58c0.09,11.46,0.16,22.92,0.27,34.38c0.02,2.24-0.01,4.05-2.8,5c-8.34,2.81-16.47,2.19-24.01-1.88
			c-2.45-1.32-4.95-3.87-4.73-8c0.48-8.78,0.23-17.6,0.28-26.4c1.11-3.93,4.5-3.3,7.36-3.58c1.62-0.16,1.74,1.34,1.79,2.41
			c0.1,1.96-0.06,3.93-0.12,5.9C406.33,129.11,406.39,136.5,408.07,143.89z"/>
		<path class="st0" d="M361.16,144.55c-1.8-8.93,0.36-17.25,4.9-24.76c3.72-6.15,9.92-8.21,16.93-6.79
			c6.43,1.3,9.79,5.22,11.45,11.92c1.17,4.74,1.71,9.24,1.52,13.97c-1.76,2.26-2,5.1-2.95,7.67c-2,5.44-5.91,7.9-11.63,8.32
			c-7.02,0.52-11.85-3.17-16.3-7.76C363.94,145.94,363.12,144.44,361.16,144.55z M386.45,146.79c0.35-7.95,1.7-15.83-0.12-23.88
			c-0.76-3.37-1.01-6.15-4.86-6.86c-4.16-0.76-7.91,0.37-9.84,4.14c-3.52,6.86-3.55,14.19-1.55,21.56
			c2.36,7.48,6.35,10.4,12.66,9.23C385.03,150.55,387.11,149.87,386.45,146.79z"/>
		<path class="st0" d="M335.64,170.88c0.54-4.32,3.53-7.76,4.31-12c2.32-2.07,1.31-4.42,0.52-6.72c-1.88-5.44-3.57-10.96-5.75-16.28
			c-2.85-6.97-4.28-14.45-7.81-21.16c2.04-2.81,4.62-1.18,7.03-0.86c0.44,1.39,0.75,2.84,1.36,4.15c1.63,3.51,1.19,7.88,4.44,10.71
			c0.41,5.45,3.26,10.11,4.88,16.14c2.94-4.2,3.09-8.58,4.45-12.45c1.82-5.16,3.41-10.44,4.6-15.78c0.94-4.2,4.35-4.17,6.38-3
			c1.81,1.05,0.47,4.1-0.37,6.41c-2.18,6.03-4.97,11.9-5.68,18.38c-0.29,0.18-0.59,0.36-0.89,0.55c0,0,0.22-0.04,0.22-0.04
			c-1.26,0.05-1.63,1.08-1.92,1.97c-2.72,8.11-5.83,16.12-7.87,24.4C342.34,170.14,340.03,171.5,335.64,170.88z"/>
		<path class="st1" d="M113.45,247.13c10.36-0.57,10.57-0.57,10.87-11.22c0.44-15.59,0.65-31.18,0.68-46.77
			c0.01-3.43,0.84-5.15,4.36-5.73c7.44-1.21,14.82-2.4,21.44,2.63c1.36,1.03,3.34,2.02,1.63,4.3c-5.7-2.66-11.62-2.26-17.59-1.25
			c-3.07,0.52-4.26,2.06-4.28,5.34c-0.09,17.28-0.59,34.56-0.58,51.85c0,4.29-1.41,5.45-5.36,4.94c-3.39-0.44-7,0.74-10.1-1.63
			C113.63,248.9,113.03,248.28,113.45,247.13z"/>
		<path class="st0" d="M256.22,143.02c4.5,7.74,11.3,9.21,19.43,7.16c1.34-0.34,2.91-1.16,3.9,0.73c-0.25,2.12-1.97,2.4-3.56,2.85
			c-9.47,2.68-17.89,0.95-25.1-5.93c-2.75-8.56-3.59-17.18,0.19-25.6c4.09-9.11,14.73-12.44,23.54-7.79
			c4.63,2.44,5.91,6.73,6.69,11.37c0.68,5.17-1.47,7.24-6.78,7.31c-4.74,0.06-9.46,1.26-14.2,1.88
			C254.29,135.78,253.79,136.7,256.22,143.02z M274.7,128.87c0.79-8.04-2.58-12.5-7.32-12.91c-7.59-0.67-15.01,8.08-12.99,15.74
			c0.45,1.73,1.69,1.17,2.8,0.98c4.36-0.61,8.72-1.14,13.06-1.86C271.84,130.55,274.04,131.37,274.7,128.87z"/>
		<path class="st1" d="M126.19,99.79c8.57,0.13,8.56,0.13,8.48-8.65c-0.1-10.44-0.07-20.88-0.34-31.31
			c-0.09-3.5,1.41-5.15,4.53-5.99c2.59-0.7,5.2-1.05,7.86-0.87c7.02,0.46,9.12,2.98,8.56,10.13c-1.63-0.29-3.25-0.69-4.9-0.84
			c-7.89-0.72-10.36,1.39-10.56,9.15c-0.26,10.61-0.39,21.22-0.68,31.83c-0.04,1.52,1.03,4.09-0.81,4.4
			c-2.79,0.48-6.31,1.48-8.56-0.6C127.91,105.31,125.66,103.04,126.19,99.79z"/>
		<path class="st1" d="M153.64,247.4c3.35-1.5,8.21,1.52,10.2-1.71c1.59-2.58,0.62-6.76,0.68-10.24c0.23-13.43,0.42-26.87,0.62-40.3
			c0.1-6.96,1.63-9.32,8.31-11.42c5.32-1.67,10.77-1.98,15.91,0.82c2.42,1.32,4.33,3.12,3.8,6.3c-6.37-2.75-12.73-3.15-19.07,0.09
			c-3.09,1.58-4.44,3.87-4.43,7.56c0.03,14.78-0.27,29.56-0.42,44.34c-0.08,8.32-0.05,8.32-8.22,8.33c-1,0-2.02,0.18-2.98,0
			C155.88,250.78,153.83,250.13,153.64,247.4z"/>
		<path class="st0" d="M312.44,100.03c0.08-15.1-0.03-30.21,0.34-45.3c0.16-6.62,1.62-7.17,8.35-4.66c0.01,13.61,0,27.22,0.02,40.82
			C321.17,99.71,321.19,99.71,312.44,100.03z"/>
		<path class="st0" d="M433.84,160.43c-1.32-12.69-0.8-25.43-0.6-38.13c0.05-3.24,2.31-6.33,6.11-7.66c4.63-1.61,9.29-2.2,14.13-1.7
			c-0.3,2.48-1.84,3.25-4.15,3.2c-4.76-0.09-6.51,2.07-6.24,7.03c0.48,8.92,0.28,17.88,0.31,26.82c0.01,1.5,0.84,3.76-1.73,3.86
			C437.2,154.02,436.07,157.81,433.84,160.43z"/>
		<path class="st1" d="M176.23,96.99c5.96,2.05,11.71,4.44,18.41,3.5c11.09-1.56,15.8-11.13,16.18-20.21
			c0.19-4.53,0.11-9.08,0.14-13.62c2.53,1.52,2.23,4.3,2.62,6.58c1.36,8.09,1.44,16.16-2,23.88c-3.38,7.58-9.41,11.57-17.56,11.64
			C185.69,108.81,179.38,105.11,176.23,96.99z"/>
		<path class="st0" d="M297.46,148.88c1.61,1.4,3.44,2.22,5.61,2.16c0.37,3.14-1.56,3.75-3.97,3.24c-3.31-0.71-6.55-1.74-9.82-2.64
			c-0.1-9.16-0.2-18.32-0.3-27.47c-0.3-3.27,2.49-8.39-4.56-7.63c-0.28-1.27-0.84-3.22,1.03-3.08c4.41,0.32,3.97-2.57,3.58-5.05
			c-0.66-4.25,1.68-5.44,5.14-5.85c1.14,0.81,0.53,2.04,0.8,2.99c0.72,2.55-1.86,6.02,2.01,7.7c2.04,0.42,4.21-0.44,6.18,0.63
			c-0.09,2.46-1.67,3.03-3.71,2.75c-3.63-0.48-4.37,1.26-4.29,4.55c0.2,7.58,0.05,15.16-0.01,22.74
			C295.15,145.97,295.17,147.92,297.46,148.88z"/>
		<path class="st1" d="M312.26,247.51c0.82-0.12,1.65-0.18,2.45-0.38c2.7-0.69,6.56,1.18,7.96-1.07c1.36-2.19,0.62-5.75,0.62-8.71
			c0.01-15.43,0.09-30.87-0.17-46.29c-0.06-3.72,1.49-5.47,4.62-6.55c4.96-1.72,10.06-2.25,15.2-1.3c5.97,1.1,8.34,3.98,8.5,9.95
			c0.06,1.97-0.22,3.94-0.35,5.92c-3.45-9.85-14.95-13.69-24.46-8.39c-2.11,1.17-1.53,2.7-1.53,4.2
			c-0.02,16.62,0.06,33.24,0.02,49.87c0,2.2,0.98,5.53-1.76,6.12c-3.44,0.74-7.22,0.26-10.79-0.18
			C311.55,250.56,312.29,248.62,312.26,247.51z"/>
		<path class="st1" d="M189.23,153.88c2.99-0.24,5.59,0.69,5.67-4.76c0.15-9.25,0.46-18.54,0.48-27.81c0.01-3.5,1.3-4.88,4.29-5.14
			c9.62-0.84,12.96,0.73,13.27,9c-1.24-0.42-2.44-1.02-3.71-1.23c-8.75-1.4-10.01-0.32-10.04,8.36c-0.03,7.82,0.03,15.64-0.23,23.46
			c-0.06,1.72,1.77,4.75-1.96,5.05c-3.08,0.24-6.45,0.77-7.55-3.55C189.15,156.11,188.83,155.05,189.23,153.88z"/>
		<path class="st1" d="M398.97,116.98c-0.05,8.8,0.19,17.62-0.28,26.4c-0.22,4.13,2.28,6.68,4.73,8c7.54,4.07,15.67,4.7,24.01,1.88
			c2.79-0.94,2.82-2.76,2.8-5c-0.11-11.46-0.18-22.92-0.27-34.38c2.03,0.77,1.09,2.53,1.11,3.81c0.22,10.97,0.29,21.95,0.47,32.92
			c0.06,3.97-2.05,6.81-5.27,8.3c-6.33,2.92-13.07,3.78-19.9,1.74c-4.31-1.29-7.4-4.29-8-8.7c-0.57-4.21-1.81-8.45-1.01-12.8
			c1.5-0.79,1.12-2.23,1.11-3.47c-0.05-5.87-0.16-11.74-0.25-17.62C398.47,117.71,398.72,117.35,398.97,116.98z"/>
		<path class="st1" d="M254.02,86.67c0.06-0.15,0.08-0.36,0.19-0.45c0.19-0.16,0.43-0.25,0.65-0.37c0.81,3.02,1.5,6.07,2.45,9.04
			c0.7,2.16,0.38,5.11,4.22,5c3.34-0.09,5.33-0.18,6.65-4.38c4.57-14.5,7.74-29.37,12.14-43.9c0.24-0.79,0.56-1.55,0.85-2.32
			c2.38,3.17,1.74,6.73,0.8,10.04c-4.36,15.24-9.08,30.37-13.31,45.64c-0.93,3.36-2.9,2.81-5.14,2.93c-2.37,0.13-3.89-0.13-4.54-3.1
			C257.65,98.69,255.71,92.71,254.02,86.67z"/>
		<path class="st1" d="M224.25,243.83c1.73-0.2,3.17,0.52,4.69,1.27c17.33,8.64,34.5-0.22,38.72-18.93
			c2.54-11.27,0.53-22.01-0.68-32.96c1.98,2.65,2.27,5.87,2.66,8.92c1.28,9.84,2.06,19.76-0.58,29.5
			c-2.62,9.67-8.06,17.24-18.13,19.95c-9.69,2.6-18.73,0.91-26.11-6.51C224.51,244.77,224.43,244.25,224.25,243.83z"/>
		<path class="st1" d="M226.97,100.06c7.45-0.23,7.99-1.28,10.49-11.64c2.38-9.9,5.23-19.7,9.41-29.86
			c2.17,3.63,2.42,6.82,2.35,10.1c-1.43,0.2-1.64,1.28-1.97,2.46c-3.08,10.93-6.43,21.79-9.25,32.79c-1.01,3.94-3.31,3.82-6.4,4.14
			c-3.7,0.39-3.38-2.03-3.85-4.13C227.45,102.64,227.22,101.34,226.97,100.06z"/>
		<path class="st1" d="M372.01,228.28c2.43-1.8,2.71,0.67,3.17,1.84c1.93,4.94,5.34,8.53,9.56,11.57
			c7.82,5.63,16.19,8.32,25.96,6.49c5.55-1.04,10.97-2.25,16.13-4.53c0.14,3.31-2.87,3.86-4.8,4.74
			c-9.44,4.29-19.33,5.64-29.45,2.84C380.92,248.01,374.4,239.95,372.01,228.28z"/>
		<path class="st1" d="M213.11,153.99c4.87,0.81,6.59-0.91,6.25-6.11c-0.52-7.95-0.14-15.96-0.12-23.95
			c0.01-4.34,3.39-7.84,7.71-8.05c5.73-0.28,8.79,2.5,8.97,8.13c-0.82,0-1.65,0.03-2.47-0.01c-9.63-0.53-11.08,0.79-11.13,10.13
			c-0.04,7.45,0.03,14.89-0.2,22.34c-0.05,1.52,1.64,4.43-1.99,4.37c-2.58-0.04-5.81,1.16-6.68-2.98
			C213.17,156.56,212.69,155.33,213.11,153.99z"/>
		<path class="st1" d="M194.14,247.71c11.44,0.38,11.31,0.39,11.1-11.11c-0.19-10.48-0.04-20.96-0.06-31.44
			c-0.01-5.43,0.34-10.89-0.84-16.26c4.25,3,4.45,7.74,4.46,12.1c0.03,15.82-0.34,31.64-0.58,47.46c-0.01,0.78,0.03,1.82-0.42,2.29
			C205.76,252.87,195.35,250.49,194.14,247.71z"/>
		<path class="st1" d="M433.63,250.75c3.07-2.27,6.05-4.67,10.31-3.86c3.71,0.7,4.39-1.28,4.3-4.57
			c-0.46-16.97-0.78-33.94-1.07-50.91c-0.12-6.97,0.89-7.86,7.85-8.56c3.41-0.34,7,1.16,10.24-0.96c-0.73,5.51-3.36,7.7-8.5,7.11
			c-0.82-0.09-1.66-0.04-2.48-0.15c-4.01-0.55-5.78,0.38-5.52,5.19c0.92,16.91-0.22,33.87,1.03,50.78c0.3,4.03-1.76,6.07-5.3,6.26
			C440.89,251.26,437.22,251.66,433.63,250.75z"/>
		<path class="st1" d="M155.9,100.52c0.94-0.23,1.88-0.63,2.83-0.67c7.12-0.3,7.13-0.28,6.33-7.69
			c-1.19-11.09-0.92-22.22-0.78-33.34c3.23,4.4,4.54,9.35,4.43,14.77c-0.21,9.96-0.28,19.92-0.57,29.88
			c-0.04,1.49,1.41,4.3-1.54,4.28c-2.75-0.02-6.18,1.7-8.27-1.39C157.18,104.67,155.72,102.87,155.9,100.52z"/>
		<path class="st1" d="M384.26,220.24c-2.27-2.81-1.75-4.15,1.99-4.67c12.6-1.74,25.16-3.78,37.76-5.49
			c2.74-0.37,3.72-1.28,3.44-4.05c-0.31-3.12-0.21-6.27-0.29-9.41c2.13,4.27,2.08,8.94,1.8,13.46c-0.15,2.41-2.11,4.42-4.93,4.8
			C410.78,216.68,397.52,218.45,384.26,220.24z"/>
		<path class="st1" d="M361.16,144.55c1.96-0.12,2.77,1.38,3.93,2.57c4.45,4.59,9.28,8.28,16.3,7.76c5.71-0.42,9.62-2.88,11.63-8.32
			c0.95-2.57,1.19-5.42,2.95-7.67c-0.96,8.33-3.56,16.21-10.95,20.68C374.12,166.15,362.27,158.39,361.16,144.55z"/>
		<path class="st1" d="M256.22,143.02c-2.42-6.32-1.93-7.24,4.11-8.03c4.74-0.62,9.46-1.82,14.2-1.88c5.31-0.07,7.46-2.14,6.78-7.31
			c2.5,4,0.48,8.33,0.79,12.5c0.12,1.59-2,1.33-3.24,1.51C271.32,140.91,263.77,141.96,256.22,143.02z"/>
		<path class="st1" d="M250.89,147.83c7.21,6.88,15.63,8.61,25.1,5.93c1.59-0.45,3.31-0.73,3.56-2.85c3.38,6.23,2.4,8.58-4.13,9.93
			C262.47,163.53,253.59,158.82,250.89,147.83z"/>
		<path class="st1" d="M433.84,160.43c2.23-2.62,3.36-6.42,7.82-6.58c2.57-0.09,1.74-2.35,1.73-3.86
			c-0.03-8.94,0.17-17.9-0.31-26.82c-0.27-4.95,1.48-7.11,6.24-7.03c2.32,0.04,3.86-0.72,4.15-3.2c0.8-0.11,1.83-0.42,1.92,0.78
			c0.35,4.71-4.72,10.11-9.45,10.22c-0.47,0.01-0.94,0.28-1.41,0.43c0,0-0.15-0.06-0.15-0.06l0.12,0.1
			c0.07,2.39,0.14,4.77,0.21,7.15c-0.68,0.91-0.68,1.82,0.05,2.71c0.11,5.43,0.28,10.87,0.31,16.3
			C445.14,159.45,442.67,161.58,433.84,160.43z"/>
		<path class="st1" d="M292.37,236.18c-2.7-1.41-2.21-4.04-2.22-6.31c-0.05-14.08,0.13-28.15-0.03-42.23
			c-0.04-3.57,1.19-4.86,4.57-4.48c0.65,0.07,1.34-0.09,1.98,0.02c4.44,0.76,6.99-0.6,6.35-5.59c2.4,3.37,0.88,7.04,0.72,10.58
			c-0.06,1.3-1.45,1.07-2.4,1.09c-1.65,0.03-3.34,0.2-4.96-0.03c-3.83-0.54-5.12,0.74-4.94,4.8
			C292.1,208.07,290.66,222.15,292.37,236.18z"/>
		<path class="st1" d="M236.22,133.04c-0.03,5.97,0,11.94-0.1,17.91c-0.05,2.84,1.58,3.06,3.84,3.17c2.68,0.13,3.39-0.91,3.37-3.47
			c-0.1-9.96-0.01-19.92,0-29.88c2.79,6.83,2.68,13.98,2.45,21.16c-0.16,4.97-0.2,9.95-0.23,14.93c-0.01,2.16,0.48,4.27-3.07,4.09
			c-2.87-0.15-5.38-0.03-5.37-3.87c0.02-6.47,0.03-12.93,0.02-19.4c0-1.97,0.21-4.04-0.32-5.87c-0.24-0.84-0.68,0.22-0.69,0.75
			C236.11,132.72,236.19,132.88,236.22,133.04z"/>
		<path class="st1" d="M326.91,114.72c3.53,6.71,4.96,14.19,7.81,21.16c2.17,5.32,3.87,10.84,5.75,16.28
			c0.79,2.3,1.8,4.64-0.52,6.72c-4.52-12.79-9.05-25.57-13.53-38.37C325.73,118.56,326.15,116.6,326.91,114.72z"/>
		<path class="st1" d="M289.28,151.63c3.27,0.9,6.51,1.93,9.82,2.64c2.41,0.52,4.33-0.09,3.97-3.24c3.04,3.33,1.02,7.91-0.68,9.26
			c-2.6,2.07-6.9,0.98-10.98-2c0,6.72,0,12.71,0,18.69c-2.22,0.18-1.2-1.52-1.23-2.36c-0.16-5.21-0.2-10.43-0.27-15.64
			C292.75,156.28,288,154.21,289.28,151.63z"/>
		<path class="st1" d="M312.44,100.03c8.74-0.32,8.73-0.32,8.71-9.13c-0.02-13.61-0.02-27.22-0.02-40.82
			c1.2-0.1,1.27,0.73,1.26,1.58c-0.04,17.05,0.5,34.09,0.06,51.15c-0.12,4.52-1.79,5.77-5.87,5.11c-1.28-0.21-2.61-0.03-3.96-0.03
			C313.65,105.16,312.26,102.62,312.44,100.03z"/>
		<path class="st1" d="M297.46,148.88c-2.29-0.95-2.31-2.91-2.29-4.96c0.06-7.58,0.2-15.17,0.01-22.74
			c-0.09-3.29,0.66-5.03,4.29-4.55c2.04,0.27,3.62-0.3,3.71-2.75c2.26,2.73,0.82,5.88,0.83,8.8c0.01,2.28-2.27,1.48-3.51,1.36
			c-2.91-0.29-3.67,0.86-3.52,3.62C297.35,134.72,296.53,141.82,297.46,148.88z"/>
		<path class="st1" d="M335.64,170.88c4.39,0.62,6.7-0.74,7.89-5.58c2.04-8.28,5.16-16.29,7.87-24.4c0.3-0.89,0.66-1.92,1.92-1.97
			c-2.23,10.88-6.74,21.05-9.87,31.65c-0.56,1.9-1.26,3.77-1.89,5.66c-2.64,0.28-5.28,0.56-7.91,0.85
			C333.22,174.66,334.07,172.65,335.64,170.88z"/>
		<path class="st1" d="M281.13,241.69c3.06,0.56,5.18,2.96,7.91,4.1c2.12,0.89,4.41,1.59,6.69,1.84c5.93,0.66,7.16-0.59,7.18-6.67
			c1.07,1.41,1.85,6.94,1.15,8.64c-0.85,2.05-2.89,1.97-4.57,2.18C290.81,252.87,283.75,248.93,281.13,241.69z"/>
		<path class="st1" d="M322.89,33.8c0.84,3.53-0.43,6.93-0.9,10.33c-0.38,2.77-2.82,4.11-5.61,3.7c-2.45-0.35-4.37-1.71-4.39-4.54
			c-0.01-2.15,0.19-4.3,0.3-6.46C316.45,38.05,320.63,39.27,322.89,33.8z"/>
		<path class="st1" d="M352.14,249.6c1.54-2.47,4.06-1.93,6.23-1.71c4.67,0.46,5.95-1.42,5.82-6.01
			c-0.39-13.43-0.31-26.87-0.35-40.31c-0.01-1.73-0.66-3.72,1.21-5.05c0.07,16.44,0.06,32.89,0.26,49.34
			c0.05,4.19-1.63,5.85-5.65,5.26c-2.67-0.39-5.52,0.99-8.03-0.81c-0.03-0.02,0.07-0.26,0.15-0.37
			C351.88,249.81,352.02,249.71,352.14,249.6z"/>
		<path class="st1" d="M325.16,180.95c-2.92,0.29-1.96-1.92-1.97-3.28c-0.04-9.49,0.01-18.98,0.03-28.47
			c2.98,0.16,1.49,2.47,1.53,3.68C325,162.24,325.05,171.6,325.16,180.95z"/>
		<path class="st0" d="M322.89,33.8c-2.26,5.47-6.43,4.25-10.61,3.04c-0.74-2.61-0.06-4.91,2.65-5.41
			C317.76,30.9,321.32,29.48,322.89,33.8z"/>
		<path class="st1" d="M271.6,183.46c0.48-0.09,0.97-0.24,1.45-0.26c6.29-0.27,6.29-0.27,6.01,5.96c-0.97,0.02-1.96-0.06-2.91,0.09
			C271.19,189.99,270.1,187.76,271.6,183.46z"/>
		<path class="st1" d="M284.43,116.53c7.05-0.76,4.26,4.36,4.56,7.63C281.67,125.08,284.65,119.85,284.43,116.53z"/>
		<path class="st1" d="M421.11,117.47c0.11,11.36,0.41,22.72-0.61,34.05c-0.14-10.47-0.29-20.95-0.42-31.42
			C420.07,119.1,420.1,118.08,421.11,117.47z"/>
		<path class="st1" d="M339.74,128.72c-3.25-2.83-2.81-7.2-4.44-10.71c-0.61-1.31-0.92-2.76-1.36-4.15c2.22-0.09,1.91,1.67,2.29,3
			C337.36,120.83,338.56,124.77,339.74,128.72z"/>
		<path class="st1" d="M227.96,74.02c-3.33-3.92-3.9-8.54-3.38-13.43C225.71,65.06,226.84,69.54,227.96,74.02z"/>
		<path class="st1" d="M296.98,113.24c-3.87-1.68-1.29-5.15-2.01-7.7c-0.27-0.95,0.34-2.19-0.8-2.99c2.13-1.22,2.91-0.5,2.84,1.83
			C296.92,107.33,296.99,110.29,296.98,113.24z"/>
		<path class="st1" d="M408.07,143.89c-1.68-7.39-1.74-14.78-0.06-22.17C408.03,129.1,408.05,136.5,408.07,143.89z"/>
		<path class="st0" d="M398.22,118.07c0.09,5.87,0.21,11.74,0.25,17.62c0.01,1.24,0.39,2.68-1.11,3.47
			c-0.04-5.46-0.08-10.92-0.1-16.38C397.25,121.14,396.86,119.42,398.22,118.07z"/>
		<path class="st0" d="M444.78,134.27c-0.73-0.89-0.73-1.8-0.05-2.71C444.74,132.47,444.76,133.37,444.78,134.27z"/>
		<path class="st1" d="M280.16,238.35c1.37,0.69,0.43,2.13,1,3.08C280.15,240.62,280.13,239.49,280.16,238.35z"/>
		<path class="st1" d="M465.22,181.98c-0.35-0.91-0.29-1.68,0.72-2.12C466.03,180.68,466.63,181.67,465.22,181.98z"/>
		<path class="st1" d="M164.32,58.86c-1.42-0.1-0.84-1.15-0.9-1.9C164.36,57.3,164.41,58.05,164.32,58.86z"/>
		<path class="st1" d="M327.58,180.49c0,0,0.09-0.13,0.09-0.13C327.67,180.36,327.58,180.49,327.58,180.49z"/>
		<polygon class="st0" points="444.51,124.42 444.39,124.31 444.54,124.38 		"/>
		<path class="st1" d="M353.11,138.97c0.3-0.18,0.59-0.37,0.89-0.55C353.7,138.61,353.41,138.79,353.11,138.97z"/>
		<path class="st1" d="M256.91,198.43c-1.88-3.29-3.38-6.86-7.06-8.73c-7.65-3.91-16.37-0.33-19.31,8.15
			c-2.04,5.87-2.55,11.98-2.45,18.17c0.08,4.65-0.03,9.31-0.06,13.97c-5.56-13.31-4.57-26.61,1.06-39.47
			c3.34-7.62,10.99-10.25,18.74-7.3C254.73,185.83,255.63,192.31,256.91,198.43z"/>
		<path class="st1" d="M413.22,205.55c0.2-6.87-1.65-12.76-8.37-15.88c-6.45-2.99-13.01-1.34-18.73,4.34
			c-2.15-1.95,0.44-2.97,1.06-4c4.63-7.59,15.57-10.12,23.05-5.57c4.07,2.48,6.89,12.16,5.65,18.97
			C415.59,205.08,414.78,205.66,413.22,205.55z"/>
		<path class="st1" d="M201.8,65.88c-6.04-7.76-15.35-3.51-17.52,3.97c-2.02,6.98-1.6,14.07-1.18,21.17
			c-3.38-1.71-4.04-5.4-4.31-8.23c-0.7-7.29-1.02-14.77,1.71-21.85c2.49-6.47,6.33-8.72,12.97-8.15c6.07,0.52,7.12,4.98,8.11,9.71
			C201.83,63.64,202.03,64.72,201.8,65.88z"/>
		<path class="st1" d="M386.45,146.79c-0.79-5.23,0.56-10.64-1.25-15.78c-1.38-3.91-3.17-7.35-8.17-7.27
			c-4.58,0.07-6.68,1.97-6.83,6.61c-0.12,3.8-0.09,7.61-0.12,11.42c-2-7.37-1.97-14.7,1.55-21.56c1.94-3.77,5.68-4.91,9.84-4.14
			c3.85,0.71,4.1,3.49,4.86,6.86C388.15,130.96,386.8,138.83,386.45,146.79z"/>
		<path class="st1" d="M257.19,132.68c-1.11,0.18-2.35,0.74-2.8-0.98c-2.02-7.66,5.4-16.41,12.99-15.74
			c4.74,0.42,8.11,4.87,7.32,12.91c-1.8-4.38-5.3-5.62-9.63-5C260.04,124.58,258.11,128.21,257.19,132.68z"/>
	</g>
</g>
</svg>
