<?xml version="1.0" encoding="utf-8"?>
<!-- Generator: Adobe Illustrator 26.0.3, SVG Export Plug-In . SVG Version: 6.00 Build 0)  -->
<svg version="1.1" id="Camada_1" xmlns="http://www.w3.org/2000/svg" xmlns:xlink="http://www.w3.org/1999/xlink" x="0px" y="0px"
	 viewBox="0 0 595.28 841.89" style="enable-background:new 0 0 595.28 841.89;" xml:space="preserve">
<style type="text/css">
	.st0{fill:#482A1F;}
	.st1{fill:#2A3458;}
	.st2{fill:#C0C2C7;}
	.st3{fill:#492B1F;}
	.st4{fill:#EBB992;}
	.st5{fill:#4F1816;}
	.st6{fill:#58382D;}
	.st7{fill:#0A4928;}
	.st8{fill:#1E2647;}
	.st9{fill:#2F3656;}
	.st10{fill:#E7C6AA;}
	.st11{fill:#D3D4D8;}
	.st12{fill:#C2CBD3;}
	.st13{fill:#99B0C5;}
	.st14{fill:#A9ABAF;}
	.st15{fill:#CCB6A5;}
	.st16{fill:#FEE033;}
	.st17{fill:#FDDA11;}
	.st18{fill:#F3D22E;}
	.st19{fill:#F2CC14;}
	.st20{fill:#FBD5B9;}
	.st21{fill:#FCD911;}
	.st22{fill:#DDA37B;}
	.st23{fill:#FDDDC4;}
	.st24{fill:#F2CD14;}
	.st25{fill:#F1CC15;}
	.st26{fill:#312B24;}
	.st27{fill:#1D1817;}
	.st28{fill:#90563B;}
	.st29{fill:#514236;}
	.st30{fill:#F6F6F6;}
	.st31{fill:#9E5F49;}
	.st32{fill:#F1CF17;}
	.st33{fill:#62625E;}
	.st34{fill:#4D4839;}
	.st35{fill:#F0D39B;}
	.st36{fill:#E7D399;}
	.st37{fill:#E6C978;}
	.st38{fill:#F9DC42;}
	.st39{fill:#E5D068;}
	.st40{fill:#EBDE87;}
	.st41{fill:#CDD2DB;}
	.st42{fill:#957C70;}
	.st43{fill:#D7A688;}
	.st44{fill:#1E1F18;}
	.st45{fill:#8D5138;}
	.st46{fill:#E7C7A8;}
	.st47{fill:#804A30;}
	.st48{fill:#EBB892;}
	.st49{fill:#9AB2C8;}
	.st50{fill:#262949;}
</style>
<g>
	<g>
		<path class="st0" d="M188.11,435.5c1.68-8.81,3.4-17.61,5.02-26.43c0.98-5.31,3.52-9.04,8.94-10.91
			c5.08-1.75,9.93-4.16,14.89-6.28c4.09,0.78,4.28,5.04,4.44,7.25c0.7,9.85,6.38,17.46,10.32,25.87c1.54,3.29,4.48,6.34,2.5,10.5
			C218.84,435.5,203.48,435.5,188.11,435.5z"/>
		<path class="st1" d="M366.26,410.37c1.7,7.56,3.39,15.12,5.09,22.68c0.62,0.83,0.66,1.65-0.07,2.45c-12.94,0-25.88,0-38.82,0
			c-1.17-1.26-0.94-2.8-0.15-3.9c6.31-8.76,7.8-19.28,11-29.18c0.25-0.78,0.64-1.46,1.29-1.97c6.33,1.23,12.24,3.69,18.18,6.08
			C364.28,407.51,366.07,408.22,366.26,410.37z"/>
		<path class="st2" d="M397.98,402.92c0.06-3.3,0.12-6.61,0.18-9.91c0.65-0.18,1.18,0,1.59,0.54c-0.11,7.83,5.06,11.24,11.48,13.66
			c1.65,0.62,3.24,1.46,4.67,2.55c5.73,7.7,7.16,16.44,6.32,25.73c-13.34,0-26.69,0-40.03,0c-1.38-1.64-0.37-3.08,0.53-4.36
			c5.77-8.22,11.85-16.27,13.57-26.55C396.44,403.74,397.34,403.39,397.98,402.92z"/>
		<path class="st3" d="M230.42,398.1c4.98,5.12,9.34,10.77,14.38,17.58c1.9-8.36,4.06-15.38,4.33-23.54
			c4.54,3.51,10.11,4.71,12.92,9.77c0.73,0.6,1.16,1.38,1.39,2.28c0.26,2.58,1.33,5.09,0.69,7.74c-1.87,1.62-1.34,4.22-2.49,6.15
			c-6.17,1.53-9.17,5.72-10.05,11.73c-0.32,2.2-1.03,4.21-2.83,5.67c-2.83,0-5.66,0-8.49,0c-5.79-10.8-9.3-22.37-11.61-34.32
			C228.42,399.91,228.28,398.24,230.42,398.1z"/>
		<path class="st4" d="M435.42,399.5c6.52,3.45,8.03,9.72,8.51,16.14c0.49,6.58,0.13,13.23,0.13,19.85c-4.04,0-8.09,0-12.13,0
			c-1.5-0.81-2.44-2.04-2.63-3.74c-0.63-5.41-2.85-10.3-4.74-15.33C421.32,407.75,425.98,400.69,435.42,399.5z"/>
		<path class="st5" d="M262.1,417.39c-2.64-2.43-2.94-4.25,1.3-4.87c3.91-0.17,6.51,2.7,8,5.23c2.12,3.62,3.99,2.48,6.44,1.25
			c2.49,0.2,4.96-0.18,7.43-0.38c3.18,0.25,4.16,2.51,5.11,5.12c2.19,5.98,3.15,6.28,8.23,3.39c2.07,2.82,1.92,5.61-0.1,8.37
			c-10.51,0-21.03,0-31.54,0C266.49,429.15,264.44,423.23,262.1,417.39z"/>
		<path class="st6" d="M230.42,398.1c-0.9,7.97,3.07,14.81,5.19,22.07c1.49,5.12,3.11,10.21,4.67,15.32c-2.02,0-4.04,0-6.07,0
			c-2.03-9.52-8.43-17.05-12.05-25.89c-2.38-5.81-1.34-12.47-5.2-17.73c2.78-1.87,5.69-3.54,8.5-6.85
			C225.86,390.68,228.83,394.1,230.42,398.1z"/>
		<path class="st7" d="M435.42,399.5c-0.76,1.41-2.31,1.41-3.54,1.98c-5.71,2.61-8.62,7.95-6.11,13.62
			c2.93,6.61,4.34,13.53,6.16,20.4c-3.23,0-6.47,0-9.7,0c-2.22-8.5-1.77-17.78-7.43-25.28c0.99-1.72,2.66-3.12,2.56-5.37
			c4.49-3,7.3-8.03,12.5-10.17c0.94,0,1.78,0.25,2.41,0.98C432.58,397.54,433.69,398.78,435.42,399.5z"/>
		<path class="st8" d="M344.61,400.44c-0.02,2.77,0.41,5.67-2.22,7.71c-0.31,0.24-0.76,0.69-0.7,0.93
			c2.79,10.67-6.99,16.92-9.16,25.83c-0.05,0.19-0.04,0.4-0.07,0.6c-2.02,0-4.04,0-6.07,0c-1.19-1.31-1.39-2.86-1.07-4.52
			c1.85-6.19,4.3-12.2,5.79-18.51c1.48-4.33,2.49-8.79,3.9-13.14c0.72-1.7,1.19-3.58,3.25-4.27
			C340.38,396.85,342.5,398.64,344.61,400.44z"/>
		<path class="st9" d="M298.5,435.5c-0.45-2.76,0.93-5.78-1.15-8.32c-2.49-2.68-1.5-5.61-0.61-8.53c1.72-2.94,0.54-7.02,3.71-9.41
			c2.45-0.99,4.9-1.97,7.35-2.96c1.52-0.49,1.03-2.93,2.97-3c0.95-0.1,1.8,0.11,2.5,0.8c0.06,7.23-2.29,14.48,0.18,21.69
			c-0.61,6.89-6.52,7.66-11.31,9.72C300.93,435.5,299.72,435.5,298.5,435.5z"/>
		<path class="st10" d="M262.1,417.39c5.37,5.04,6.48,11.21,4.87,18.11c-6.07,0-12.13,0-18.2,0c0.8-3.29,1.54-6.6,2.42-9.88
			C252.68,420.1,256.18,417.14,262.1,417.39z"/>
		<path class="st11" d="M397.98,402.92c-1.41,11.43-7.57,20.54-14.33,29.39c-0.69,0.9-0.98,2.11-1.45,3.18c-2.02,0-4.04,0-6.07,0
			c-0.39-5.35,3.41-9.15,5.18-13.71c0.7-1.81,2.4-3.23,2.26-5.41c1.58-5.72,8.67-8.87,7.12-15.87
			C394.01,399.44,395.25,403.29,397.98,402.92z"/>
		<path class="st12" d="M336.29,399.05c-0.76,4.64-1.86,9.18-3.69,13.53c-4.6,1.38-6.3,4.04-4.99,8.99c0.8,3.03-0.53,6.3-1,9.45
			c-0.07,1.49-0.14,2.98-0.21,4.47c-2.83,0-5.66,0-8.49,0c-2.39-2.84-1.7-6.1-0.78-9.09c1.74-5.69,2.44-11.2-0.86-16.58
			c-0.01-2.12-0.11-4.25,0.76-6.26c2.05-2.47,3.32-0.8,4.73,0.82c3.88,4.45,4.06,4.34,7.9-0.19c1.85-2.19,2.77-5.4,6.15-6.07
			c0.1-0.02,0.3,0.19,0.37,0.34C336.27,398.64,336.26,398.86,336.29,399.05z"/>
		<path class="st13" d="M317.69,409.79c0.96,1.14-1.48,4.53,2.94,3.72c1.35-0.25,1.02,3.36,0.23,5.16
			c-2.37,5.38-3.15,11.01-2.94,16.82c-1.21,0-2.43,0-3.64,0c-1.23-0.73-2.03-1.71-1.84-3.24c1.35-5.8,1.52-11.77,2.57-17.61
			C315.34,412.75,315.17,410.52,317.69,409.79z"/>
		<path class="st14" d="M383.58,416.38c-0.58,7.11-5,12.73-7.44,19.12c-1.62,0-3.23,0-4.85,0c0.02-0.82,0.04-1.63,0.07-2.45
			c2.3,1.47,2.65-0.7,3.38-1.89C377.73,426.26,380.64,421.31,383.58,416.38z"/>
		<path class="st15" d="M313.35,432.74c0.31,0.92,0.62,1.84,0.92,2.76c-4.04,0-8.09,0-12.13,0c0.76-0.92,1.39-2.46,2.3-2.65
			c3.94-0.81,6.84-2.34,6.94-6.9c0-0.08,1.1-0.13,1.68-0.19C314.18,428.04,313.62,430.39,313.35,432.74z"/>
		<path class="st16" d="M368.92,296.48c1.87,0.42,4.25-0.25,5.09,2.37c-1.58,2.23-1.07,3.76,1.19,5.39
			c7.67,5.53,12.94,13.38,19.14,20.31c1.9,2.12,3.74,4.97,0.7,7.89c-1.6,0.71-3.24,0.64-4.91,0.4c-21.28-2.96-42.59-5.52-64.12-5.49
			c-4.78-0.07-9.56-0.56-14.34-0.05c-1.77,0.2-3.54,0.04-5.31,0.06c-8.38-0.12-16.79,0.95-25.12-0.7c-3.44-2.35-2.51-5.64-1.64-8.7
			c1.22-4.25,2.51-8.51,4.5-12.48c2.51-5,4.44-9.93-0.13-14.83c6.75-1.32,12.77-3.53,20.55-2.01c12.25,2.39,25.23,1.96,37.91,0.09
			c5.54-0.81,10.26,2.3,15.09,4.49c0.9,0.41,1.83,0.77,2.74,1.15C362.86,296.15,366.27,294.79,368.92,296.48z"/>
		<path class="st17" d="M283.95,290.64c5.28,2.45,6.59,6.18,3.19,12.34c-2.74,4.97-3.91,10.44-6.23,15.51
			c-1.05,2.29-0.46,4.75-0.62,7.13c-5.99,3.59-12.52,1.28-18.8,1.75c-13.52-0.07-27.01-0.03-40.42,2.34
			c-4.11,0.72-7.99,3.18-12.41,2.03c-3.79-1.76-7.32,0.53-10.99,0.71c-2.16,0.1-4.74,1.54-5.88-1.76
			c19.07-15.76,39.89-28.62,63.02-37.66c6.59-0.22,13.18,0.76,19.77,0.02c1.94-0.22,4.08,0.41,5.61-1.4
			C281.12,290.09,282.65,290.78,283.95,290.64z"/>
		<path class="st18" d="M325.19,325.63c21.53-0.56,42.75,2.68,64.05,5.02c0.52,0.06,0.97,0.64,1.46,0.98
			c2.27,2.56,3.58,5.72,5.4,8.57c2.49,3.91,5.35,7.33,9.37,9.72c-0.73,3.01-3.17,2.22-4.91,1.79c-12.11-2.95-24.07-1.31-36.29-0.33
			c-11.42,0.92-22.72,3.43-34.24,3.08c-2.39-1.36-3.92-3.24-4.06-6.12c-0.32-6.69,0.38-13.47-1.78-20.02
			C323.88,327.4,324.56,326.43,325.19,325.63z"/>
		<path class="st18" d="M207.52,330.45c7.03-0.55,13.76-2.67,20.64-3.96c4.19-0.79,8.56-0.74,12.85-0.82
			c6.63-0.12,13.27-0.04,19.9-0.04c3.2,1.86,2.63,4.59,1.63,7.34c-1.1,3.01-2.88,5.69-4.42,8.49c-2.92,5.33-2.24,6.47,4.02,6.56
			c8.62,0.12,17.24-0.12,25.85,0.12c2.79,0.08,6.37-0.54,6.87,3.88c-14.78,0.06-29.56,0.1-44.34,0.2c-1.97,0.01-3.94,0.28-5.91,0.43
			c-0.65,0.65-1.54,0.72-2.08,0.14c-3.95-4.24-9.03-3.94-14.14-3.61c-4.08-1.18-8.46-0.24-12.48-1.77
			c-8.21,0.9-15.91-2.9-24.06-2.59c-1.32-1.28-1.43-2.77-0.75-4.39C197.85,339.21,201.08,332.21,207.52,330.45z"/>
		<path class="st19" d="M294.85,352.02c-1.43-2.69-3.99-2.24-6.37-2.24c-10.05-0.01-20.09-0.11-30.14,0.04
			c-4.93,0.08-5.67-1.99-3.6-5.87c1.97-3.7,4.02-7.36,6.12-10.98c1.45-2.49,1.56-4.89,0.04-7.35c6.46,0,12.93-0.01,19.39-0.01
			c9.03,0.04,18.06,0.08,27.09,0.12c3.66,8.86,4.01,17.76,0.35,26.71C303.44,352.3,299.15,352.16,294.85,352.02z"/>
		<path class="st20" d="M245.05,390.77c-1.25,3.35,0.12,8.46-4.64,9.46c-5.08,1.06-6.55-4.14-8.61-7.18
			c-3.62-5.35-5.46-11.65-7.42-17.8c0.33-3.87-1.5-7.34-2.07-11.04c-0.49-3.17,0.32-5.3,3.65-6.43c6.24-2.12,12.07-6.52,19.16-2.87
			c3.28,2.79,2.41,7.06,3.8,10.54c1.15,6.34,2.83,12.67-1.71,18.56c-0.87,1.12-0.78,2.98-1.13,4.49c-2.25,1.59-4.64,1.18-6.31,0.57
			c-1.53-0.23-0.42,1.09-0.74,0.35C241.15,389.36,243.27,389.3,245.05,390.77z"/>
		<path class="st21" d="M395.56,331.68c0.19-2.1-0.36-4.16-1.73-5.59c-6.97-7.27-12.42-16-20.97-21.72
			c-1.33-0.89-3.05-1.26-2.66-3.38c0.41-2.22,2.37-1.72,3.81-2.13c15.32,5.06,28.43,14.1,41.69,22.88c2.08,1.38,3.73,3.4,6.27,4.06
			c2.35,1.28,4.26,3.09,6.21,4.87c0.96,4.1,5.39,5.09,7.43,8.22c-1.45,2.14-3.74,3.05-5.75,1.75c-8.82-5.69-19.13-3.83-28.62-5.98
			C399.12,334.17,396.18,335.07,395.56,331.68z"/>
		<path class="st22" d="M336.29,399.05c-3.1,1.52-4.37,4.6-6.26,7.18c-3.91,5.33-6.29,5.12-9.44-0.76
			c-0.56-1.04-0.62-2.35-2.09-2.63c-0.71-0.07-1.15-0.45-1.31-1.14c0.29-4.68-1.53-8.9-2.96-13.2c-0.82-2.46-1.64-4.88-1.05-7.52
			c0.06-0.39,0.15-0.78,0.26-1.17c0.96-3.49-0.8-8.36,3.67-10.09c5.36-2.07,11.06-1.61,16.48,0.47c2.74,1.05,4.08,3.4,3.99,6.16
			c-0.1,3.24,2.11,1.07,3.14,1.6c2.1,5.12-3.43,7.85-3.94,12.27c-0.25,2.12-0.92,3.76,1.48,4.82
			C337.61,396.38,336.95,397.72,336.29,399.05z"/>
		<path class="st23" d="M391.82,378.7c-1.59,5.96-6.4,10.53-6.56,17.41c-0.06,2.54-5.28,4.45-9.29,4.46c-4.26,0-3.34-3.07-3.6-5.46
			c-0.75-6.85-6.78-11.67-7.2-18.64c0.17-3.93,1.96-7.42,3.8-10.64c2.72-4.74,7.97-3.59,12.42-3.84c1.54-0.09,3.1,0.73,4.54,1.48
			c3.1,1.83,3.77,4.8,4,8.1C390.08,374.02,389.41,376.79,391.82,378.7z"/>
		<path class="st24" d="M395.56,331.68c8.27,2.49,16.92,2.29,25.38,3.49c2.69,0.38,5.4,0.48,7.12,2.56
			c2.33,2.82,4.87,1.96,7.56,1.16c0.99,0.65,2.6,1.53,1.9,2.6c-1.24,1.9-3.66,0.7-5.52,1.15c-2.21,1.59-5.21,0.55-7.39,2.22
			c-4.47-0.01-8.21,2.41-12.22,3.84c-2.3,0.82-4.56,1.14-6.93,1.23c-3.54,0.27-5.98-1.21-7.55-4.41c-2.29-4.68-7.13-8.06-7.22-13.88
			C392.32,331.65,393.94,331.66,395.56,331.68z"/>
		<path class="st25" d="M325.19,325.63c3.32,7.62,2.33,15.69,2.39,23.63c0.02,2.27,2.43,3.12,2.44,5.21
			c-5.63-0.03-11.26-0.06-16.89-0.09c-1.89,0.85-3.28,0.68-3.61-1.72c-0.2-6.19-0.16-12.39-0.04-18.57c0.06-2.97,0.14-6.03,2.3-8.49
			C316.26,325.62,320.72,325.62,325.19,325.63z"/>
		<path class="st26" d="M432.26,395.66c-0.89-0.03-1.79-0.07-2.68-0.1c-1.63-1.31-1.77-3.22-1.51-4.95c0.75-5-0.59-8.78-4.02-12.84
			c-5.68-6.74-6.83-7.53-15.47-3.51c-0.46,0.09-0.78-0.05-0.99-0.39c-0.04-0.06-0.16-0.07-0.24-0.1c1.89,8.55-3.36,14.13-8.35,19.82
			c-0.28-0.19-0.55-0.38-0.83-0.56c0.9-8.53,1.57-16.92,6.28-24.7c4.26-7.04,10.65-7.37,17.33-6c6.86,1.41,14.95,16.85,12.92,23.59
			C433.73,389.13,434.64,392.81,432.26,395.66z"/>
		<path class="st27" d="M340.74,377.96c-1.95,1-0.91,3.89-3.04,4.82c-1.19-1.28-1.26-2.86-1.43-4.42c-0.31-2.9,0.05-5.78-3.96-7.07
			c-5.39-1.74-10.59-1.79-15.82-0.12c-1.52,0.49-1.07,2.36-1.2,3.73c-0.2,2.11,0.82,4.39-0.89,6.29c-4.7-5.63-5.34-13.47-1.48-18.18
			c5.99-5.19,12.74-7.13,20.46-4.58c5.11,1.69,8.07,5.18,8.18,10.64C341.61,372.04,341.92,375.08,340.74,377.96z"/>
		<path class="st28" d="M300.46,409.24c-1.39,2.95,0.37,6.64-2.2,9.32c-4.76,1.69-6.51-1.65-7.86-5c-1.67-4.13-1.65-8.53-1.07-12.91
			c1.36-8.12-0.32-15.52-5.29-22.15c-0.85-1.79-2.9-3.32-1.29-5.66c3.69,0.02,6.54,1.81,8.43,4.74c4.79,7.43,8.69,15.03,5.72,24.45
			C296.02,404.78,295.54,408.7,300.46,409.24z"/>
		<path class="st29" d="M244.99,355.99c-7.34-2.29-13.56,1.86-20.19,3.55c-2.21,0.56-1.41,2.56-1.06,4.07
			c0.68,2.93,1.33,5.88,2.21,8.75c0.52,1.7,0.38,2.7-1.58,2.89c-7.36-10.85-6.56-18.02,2.77-24.8c0.4-0.91,1.03-1.58,2.02-1.84
			c6.43-3.5,11.05-0.2,15.43,4.04c0.56,0.67,1.13,1.34,1.7,2.01C246.67,355.91,246.11,356.22,244.99,355.99z"/>
		<path class="st30" d="M312.92,363c-3.09,6.35,0.33,12.17,1.48,18.18c-0.21,4.93,2.46,9.08,3.81,13.58
			c0.71,2.37,1.49,4.52-0.16,6.74c-1.33,1.5-2.73,2.85-4.99,2.59c-0.78-0.01-1.56-0.01-2.34-0.02c-1.84-2.03-1.25-4.54-1.26-6.88
			c-0.06-11.39-0.03-22.78-0.03-34.18c0.47-3.02-1.21-6.45,1.69-9.02c0.67,0.13,1.52-0.63,2.02,0.39
			C311.9,357.23,310.89,360.08,312.92,363z"/>
		<path class="st31" d="M282.74,372.85c-0.15,2.07,1.89,3.07,2.36,4.83c-1.34,1.95-3.34,2.12-5.4,1.84
			c-4.22-0.57-5.79,1.69-6.33,5.43c-0.43,2.94-0.56,6.04-2.83,8.38c-3.36,0.92-2.72,4.4-4.17,6.55c-1.11,1.65-0.91,4.49-4.07,4.11
			c-0.08-0.69-0.16-1.38-0.25-2.07c0.94-7.22,3.39-14.02,6.06-20.74C271.25,373.26,275.61,370.88,282.74,372.85z"/>
		<path class="st32" d="M207.52,330.45c-5.28,3.24-7.65,11.18-15.85,9.7c-1.39-2.25-3.32-4.32-2.38-7.32
			c0.36-1.27,0.75-2.51,2.52-2.15c4.13,1.99,8.04,0.01,11.61-1.33C205.71,328.5,206.52,328.62,207.52,330.45z"/>
		<path class="st33" d="M310.52,363.01c0.06,13.69,0.13,27.38,0.19,41.07c-1.18,0.47-1.34,2.26-2.91,2.21
			c0.2-14.82,0.41-29.63,0.61-44.44C309.65,361.28,309.96,362.35,310.52,363.01z"/>
		<path class="st34" d="M310.52,363.01c-0.7-0.39-1.4-0.78-2.11-1.17c-0.22-3.13-0.45-6.26-0.67-9.39
			c0.86-8.92,0.11-17.81-0.35-26.71c1.47-0.04,2.93-0.09,4.4-0.13c-0.93,9.45-1.04,18.92-0.67,28.4
			C310.92,357,310.72,360,310.52,363.01z"/>
		<path class="st35" d="M385.8,364.32c-2.32-0.37-4.7-1.26-6.95-0.99c-4.48,0.53-9.44,0.59-10.2,7.1c-0.25,2.09-1.51,4.48-3.49,6.02
			c-2.28-6.61,0.26-13.53,6.19-16.87c2.84,0.97,5.81,0.45,8.71,0.8c2.36,0.28,4.7,0.6,5.96,3.03
			C385.94,363.72,385.87,364.02,385.8,364.32z"/>
		<path class="st36" d="M391.82,378.7c-3.65,0.39-3.56-2.06-3.52-4.53c0.06-3.5,0.42-7.09-2.5-9.84c0,0,0.09-0.09,0.09-0.09
			c0.51-1.1,3.38,0.07,2.4-2.47c4.73,2.1,4.77,6.33,4.63,10.49C392.84,374.41,392.2,376.55,391.82,378.7z"/>
		<path class="st37" d="M388.28,361.76c1.27,2.81-0.68,2.53-2.4,2.47c-2.38-2.75-5.62-2.22-8.75-2.44c-2.07-0.14-5,1.4-5.8-2.21
			C377.84,353.79,383.02,358.09,388.28,361.76z"/>
		<path class="st38" d="M280.21,291.65c-0.1,1.02-0.38,2.3-1.44,2.3c-7.99,0.03-16.06,1.71-23.95-0.92
			c6.1-3.1,12.55,0.98,18.78-0.91C275.66,291.5,278,291.78,280.21,291.65z"/>
		<path class="st39" d="M229.17,348.62c-0.68,0.62-1.35,1.23-2.03,1.84c-3.6-1.56-7.99-0.22-11.24-3.04
			C220.34,347.74,224.94,346.13,229.17,348.62z"/>
		<path class="st40" d="M189.29,332.83c0.8,2.44,1.59,4.88,2.39,7.32c0.06,1.56,0.11,3.12,0.17,4.68
			C187.79,341.51,188.8,337.11,189.29,332.83z"/>
		<path class="st41" d="M366.26,410.37c-1.16-1.28-2.31-2.56-3.47-3.84c1.73-0.7,3.46-1.39,5.35-2.15
			C368.93,407.02,367.02,408.51,366.26,410.37z"/>
		<path class="st42" d="M244.99,355.99c0.43-0.44,0.87-0.88,1.3-1.31c2.67,3.16,2.61,6.97,2.63,10.77
			C245.9,363,248.12,358.39,244.99,355.99z"/>
		<path class="st43" d="M245.05,390.77c-2.6,0.08-5.11-0.15-7.88-2.28c3.42,0,6.17,0,8.91,0
			C245.74,389.26,245.39,390.02,245.05,390.77z"/>
		<path class="st44" d="M399,393.57c0.36-1.52,0.01-3.39,1.4-4.44c4.91-3.73,6.08-8.87,6.04-14.61c-0.01-2,0.48-3.1,1.46-0.24
			c3.06,2.26,2.65,5.64,2.56,8.74c-0.13,4.59,1.05,8.47,4.07,12.07c2.37,2.82,4.72,6.05,2.89,10.23c2.85,3.61-0.49,3.93-2.63,4.89
			c-4.19-1.85-8.41-3.63-12.56-5.57C397.04,402.2,399.54,397.42,399,393.57z"/>
		<path class="st45" d="M262.3,403.99c2.9-2.86,3.34-6.84,4.75-10.38c0.69-1.74,1.42-3.5,2.48-0.17c2.94,6.28,4.73,13.04,8.48,18.99
			c1.41,2.24,1.29,4.97-0.2,7.4c-2.28,0.7-2.79,3.31-5.29,4.77c-0.01-6.48-5.21-8.76-9.12-12.09
			C263.39,409.63,261.5,406.98,262.3,403.99z"/>
		<path class="st46" d="M277.81,419.84c-0.03-7.41-4.96-12.96-7.56-19.38c-0.97-2.39-0.13-4.72-0.72-7.01
			c1.31-2.88,1.83-5.95,2.32-9.06c0.77-4.87,2.53-8.42,8.67-6.3c1.32,0.46,3.05-0.24,4.59-0.4c6.52,4.76,3.84,13.02,7.25,19.01
			c0.99,1.73-1.94,2.26-2.17,3.86c-2.53,6.18-4.22,12.58-5.11,19.19C282.66,420.65,280.24,420.89,277.81,419.84z"/>
		<path class="st47" d="M285.07,419.74c-2.18-7.42,0.52-13.55,5.11-19.19c1.85,3.17-0.2,6.57,0.79,10.04
			c1.22,4.23,2.72,7.22,7.28,7.97c-1.34,2.76-1.13,5.69-0.9,8.61c-0.41,1.79,0.67,5.33-1.24,5.05c-3.46-0.5-6.1-3.59-7.08-7.06
			C288.33,422.68,288.73,419.9,285.07,419.74z"/>
		<path class="st48" d="M417.43,405.33c-0.88-4.12-2.08-7.95-5.43-11.01c-2.77-2.54-3.61-6.15-3.38-9.91
			c0.21-3.41,0.05-6.78-0.72-10.12c5.02-6.23,12.53-5.85,16.25,0.73c0.98,1.73,1.47,3.82,4.12,4.49c1.15,0.29,3.31,2.32,2.15,4.31
			c-2.26,3.87-0.48,7.85-0.84,11.74C425.31,398.53,423.27,404.27,417.43,405.33z"/>
		<path class="st49" d="M326.61,431.03c-1.12-4.28,1.07-8.82-1.78-13.17c-1.69-2.57,3.5-6.06,7.78-5.28
			C331.23,418.93,329.28,425.1,326.61,431.03z"/>
		<path class="st50" d="M313.05,404.09c1.4-1.36,3.08-2.19,4.98-2.59c0.16,0.45,0.32,0.9,0.47,1.34c-0.27,2.32-0.55,4.64-0.82,6.95
			c-2.37,7.47-1.55,15.55-4.34,22.94c-0.09-2.33-0.19-4.65-0.28-6.98c-0.68-0.71-1.86-1.35-1.96-2.13
			C310.26,416.98,310.32,410.39,313.05,404.09z"/>
	</g>
</g>
</svg>
